<svg width="51" height="35" viewBox="0 0 51 35" fill="none" xmlns="http://www.w3.org/2000/svg">
<path d="M49.7657 0.247678L10.7135 15.7616L1.69533 11.5951C-0.141073 10.748 0.220873 8.03137 2.2173 7.69942L47.9712 0.0569013C47.9712 0.0569013 47.9788 0.0569013 47.9865 0.0569013C48.737 -0.0690113 49.339 0.0225615 49.7657 0.247678Z" fill="#00D3EF"/>
<path d="M50.181 0.56437L18.1353 22.4503L13.251 31.4282C12.8357 31.1726 12.508 30.6422 12.4242 29.9364L10.7097 15.7578L49.7657 0.247681C49.9295 0.335438 50.0705 0.442273 50.181 0.568186V0.56437Z" fill="#0082A5"/>
<path d="M50.2839 2.14396L31.7713 33.9007C31.0664 35.114 29.3786 35.2781 28.4528 34.2212L18.1354 22.4502L50.181 0.564331C50.5582 0.980224 50.6116 1.57545 50.2839 2.14015V2.14396Z" fill="#00D3EF"/>
<path d="M22.0711 26.9412L14.3597 31.4473C13.9901 31.6648 13.5939 31.6381 13.2548 31.4283L18.1392 22.4503L22.0749 26.9412H22.0711Z" fill="#006B91"/>
</svg>
