<svg width="20" height="21" viewBox="0 0 20 21" fill="none" xmlns="http://www.w3.org/2000/svg">
<g clip-path="url(#clip0_33_15)">
<path d="M10 14.5678C12.0136 14.5678 13.6459 12.9355 13.6459 10.922C13.6459 8.90841 12.0136 7.27612 10 7.27612C7.98648 7.27612 6.35419 8.90841 6.35419 10.922C6.35419 12.9355 7.98648 14.5678 10 14.5678Z" stroke="#00D3EF" stroke-width="1.5" stroke-linecap="round" stroke-linejoin="round"/>
<path d="M14.1667 2.58862H5.83335C3.53217 2.58862 1.66669 4.4541 1.66669 6.75529V15.0886C1.66669 17.3898 3.53217 19.2553 5.83335 19.2553H14.1667C16.4678 19.2553 18.3334 17.3898 18.3334 15.0886V6.75529C18.3334 4.4541 16.4678 2.58862 14.1667 2.58862Z" stroke="#00D3EF" stroke-width="1.5" stroke-linecap="round" stroke-linejoin="round"/>
<path d="M14.8282 6.36471C14.6843 6.36471 14.5677 6.24811 14.5677 6.10429C14.5677 5.96047 14.6843 5.84387 14.8282 5.84387" stroke="#00D3EF" stroke-width="1.5"/>
<path d="M14.8282 6.36471C14.972 6.36471 15.0886 6.24811 15.0886 6.10429C15.0886 5.96047 14.972 5.84387 14.8282 5.84387" stroke="#00D3EF" stroke-width="1.5"/>
</g>
<defs>
<clipPath id="clip0_33_15">
<rect width="20" height="20" fill="white" transform="translate(0 0.921997)"/>
</clipPath>
</defs>
</svg>
