<svg width="170" height="63" viewBox="0 0 170 63" fill="none" xmlns="http://www.w3.org/2000/svg">
<g clip-path="url(#clip0_21_2)">
<path d="M5.48819 62.3055L0 43.1243H6.45944L11.5647 62.3024H5.48819V62.3055ZM7.50229 62.3055V57.0236H13.6504V62.3055H7.50229ZM9.72496 62.3055L14.0676 43.1274H20.1099L15.3875 62.3055H9.72807H9.72496Z" fill="#00D3EF"/>
<path d="M30.0216 63C28.3312 63 26.8277 62.7446 25.5078 62.237C24.1879 61.7262 23.0703 61.0193 22.1551 60.1161C21.2399 59.213 20.5457 58.1697 20.0725 56.9893C19.5962 55.809 19.3596 54.5446 19.3596 53.2023V52.3676C19.3596 50.9786 19.6087 49.68 20.1067 48.4747C20.6048 47.2695 21.3177 46.2168 22.2422 45.3137C23.1668 44.4105 24.2906 43.7035 25.6105 43.1959C26.9304 42.6883 28.3997 42.4329 30.0216 42.4329C31.6435 42.4329 33.1408 42.6883 34.4482 43.1959C35.7557 43.7067 36.8733 44.4105 37.8009 45.3137C38.7255 46.2168 39.4384 47.2726 39.9364 48.4747C40.4345 49.68 40.6836 50.9755 40.6836 52.3676V53.2023C40.6836 54.5446 40.447 55.809 39.9707 56.9893C39.4975 58.1697 38.8002 59.213 37.8881 60.1161C36.9729 61.0193 35.8553 61.7262 34.5354 62.237C33.2155 62.7446 31.7088 63 30.0216 63ZM30.0216 57.7181C30.9928 57.7181 31.7991 57.5094 32.4341 57.0921C33.0692 56.6748 33.5517 56.0893 33.8755 55.3387C34.1992 54.5851 34.3611 53.7348 34.3611 52.785C34.3611 51.8351 34.193 50.9132 33.8568 50.1627C33.5206 49.409 33.0287 48.8142 32.3812 48.3719C31.7337 47.9328 30.9461 47.7117 30.0185 47.7117C29.0908 47.7117 28.3063 47.9328 27.6557 48.3719C27.0082 48.8111 26.5164 49.409 26.1802 50.1627C25.844 50.9164 25.6759 51.7915 25.6759 52.785C25.6759 53.7784 25.8377 54.5851 26.1615 55.3387C26.4852 56.0924 26.9709 56.6748 27.6215 57.0921C28.269 57.5094 29.069 57.7181 30.0185 57.7181H30.0216Z" fill="#00D3EF"/>
<path d="M55.4858 61.8446C53.948 62.3553 52.4974 62.5453 51.137 62.4114C49.7766 62.2775 48.5377 61.8944 47.4263 61.2653C46.315 60.6331 45.3593 59.8296 44.5561 58.8486C43.7561 57.8707 43.1584 56.7869 42.7662 55.6003L42.5483 54.9401C42.1405 53.7099 41.963 52.458 42.016 51.1811C42.0689 49.9073 42.349 48.6958 42.8596 47.5498C43.3701 46.4037 44.1203 45.3791 45.1134 44.4759C46.1064 43.5727 47.3392 42.8783 48.8116 42.3893C50.7666 41.7415 52.5721 41.6294 54.2251 42.0561C55.8781 42.4827 57.3069 43.2956 58.5117 44.4946C59.7133 45.6936 60.5974 47.1387 61.1577 48.8329L61.7927 50.7451L45.708 56.0862L44.6371 52.8535L57.2602 48.6616L55.6664 50.8011C55.324 49.7672 54.8975 48.9388 54.3838 48.3159C53.8733 47.693 53.285 47.285 52.6219 47.0888C51.9588 46.8957 51.221 46.93 50.4086 47.201C49.5961 47.4719 48.9921 47.8737 48.5283 48.428C48.0676 48.9855 47.803 49.6831 47.7407 50.5208C47.6785 51.3586 47.831 52.3396 48.2046 53.4608C48.5408 54.4729 48.9735 55.2982 49.5027 55.9398C50.0319 56.5813 50.6607 57.0018 51.386 57.2011C52.1114 57.4004 52.9456 57.3412 53.8889 57.0298C54.7232 56.7526 55.3644 56.382 55.8065 55.918C56.2485 55.454 56.5007 54.9432 56.5598 54.3857L62.0324 52.5701C62.1787 53.8874 62.02 55.1612 61.5593 56.3883C61.0985 57.6153 60.3639 58.7022 59.349 59.649C58.3342 60.5957 57.0454 61.3276 55.4858 61.8477V61.8446Z" fill="#00D3EF"/>
<path d="M77.3918 61.8446C75.854 62.3553 74.4034 62.5453 73.043 62.4114C71.6826 62.2775 70.4437 61.8944 69.3323 61.2653C68.221 60.6331 67.2653 59.8296 66.4622 58.8486C65.6621 57.8707 65.0644 56.7869 64.6722 55.6003L64.4543 54.9401C64.0465 53.7099 63.869 52.458 63.922 51.1811C63.9749 49.9073 64.2551 48.6958 64.7656 47.5498C65.2761 46.4037 66.0263 45.3791 67.0194 44.4759C68.0124 43.5727 69.2452 42.8783 70.7176 42.3893C72.6726 41.7415 74.4781 41.6294 76.1311 42.0561C77.7841 42.4827 79.2129 43.2956 80.4177 44.4946C81.6193 45.6936 82.5034 47.1387 83.0637 48.8329L83.6987 50.7451L67.614 56.0862L66.5431 52.8535L79.1662 48.6616L77.5724 50.8011C77.23 49.7672 76.8035 48.9388 76.2898 48.3159C75.7793 47.693 75.191 47.285 74.5279 47.0888C73.8648 46.8957 73.1271 46.93 72.3146 47.201C71.5021 47.4719 70.8982 47.8737 70.4343 48.428C69.9736 48.9855 69.709 49.6831 69.6467 50.5208C69.5845 51.3586 69.737 52.3396 70.1106 53.4608C70.4468 54.4729 70.8795 55.2982 71.4087 55.9398C71.9379 56.5813 72.5667 57.0018 73.292 57.2011C74.0174 57.4004 74.8516 57.3412 75.7949 57.0298C76.6292 56.7526 77.2704 56.382 77.7125 55.918C78.1545 55.454 78.4067 54.9432 78.4658 54.3857L83.9384 52.5701C84.0848 53.8874 83.926 55.1612 83.4653 56.3883C83.0045 57.6153 82.2699 58.7022 81.255 59.649C80.2402 60.5957 78.9514 61.3276 77.3918 61.8477V61.8446Z" fill="#00D3EF"/>
<path d="M88.1566 62.3055V55.4259H94.9646V62.3055H88.1566Z" fill="#00253A"/>
<path d="M107.049 63C105.384 63 103.936 62.7259 102.707 62.184C101.48 61.639 100.456 60.904 99.6341 59.9791C98.8123 59.0541 98.199 57.9984 97.7943 56.818C97.3897 55.6377 97.1873 54.4106 97.1873 53.1338V52.4393C97.1873 51.097 97.4021 49.8232 97.8286 48.618C98.2582 47.4127 98.887 46.3476 99.7213 45.4227C100.556 44.4977 101.586 43.7658 102.812 43.2333C104.039 42.7007 105.452 42.4329 107.049 42.4329C108.808 42.4329 110.358 42.7817 111.703 43.4762C113.045 44.1707 114.116 45.1268 114.916 46.3414C115.716 47.5591 116.161 48.9543 116.251 50.5271H110.069C110 49.7641 109.717 49.1132 109.219 48.5806C108.721 48.0481 107.999 47.7802 107.049 47.7802C106.24 47.7802 105.574 47.9889 105.051 48.4062C104.531 48.8235 104.142 49.4028 103.886 50.144C103.631 50.8852 103.504 51.7666 103.504 52.785C103.504 53.7348 103.613 54.5788 103.834 55.32C104.055 56.0613 104.425 56.6343 104.945 57.0392C105.465 57.444 106.165 57.6465 107.046 57.6465C107.694 57.6465 108.238 57.5312 108.677 57.2976C109.116 57.0672 109.465 56.7371 109.72 56.3073C109.975 55.8775 110.137 55.3761 110.206 54.7968H116.388C116.295 56.4194 115.837 57.8427 115.015 59.0697C114.194 60.2968 113.101 61.2591 111.734 61.9536C110.368 62.6481 108.805 62.9969 107.046 62.9969L107.049 63Z" fill="#00253A"/>
<path d="M116.391 41.5266V36.9392H124.865V41.5266H116.391ZM118.546 62.3024V36.9392H124.865V62.3024H118.546Z" fill="#00253A"/>
<path d="M134.549 62.9284C132.373 62.9284 130.689 62.2152 129.497 60.7919C128.305 59.3687 127.707 57.1855 127.707 54.2425V43.1243H134.026V54.4169C134.026 55.2733 134.282 55.9678 134.789 56.5004C135.3 57.0329 135.981 57.3007 136.837 57.3007C137.693 57.3007 138.388 57.036 138.92 56.5004C139.452 55.9647 139.72 55.2484 139.72 54.3452V43.1243H146.039V62.3024H141.04V54.2425H141.389C141.389 56.2107 141.14 57.8395 140.641 59.1226C140.143 60.4089 139.409 61.365 138.437 61.9878C137.466 62.6107 136.262 62.9252 134.826 62.9252H134.549V62.9284Z" fill="#00253A"/>
<path d="M161.249 62.9284C159.674 62.9284 158.301 62.6045 157.134 61.9567C155.964 61.3089 155.051 60.359 154.392 59.1071C153.732 57.8551 153.38 56.3291 153.333 54.5196H153.887V62.3024H148.888V36.9392H155.207V50.0039L153.819 51.3929C153.887 49.518 154.248 47.9172 154.896 46.5968C155.543 45.2763 156.44 44.2735 157.589 43.5914C158.734 42.9094 160.06 42.5668 161.564 42.5668C162.859 42.5668 164.029 42.8035 165.072 43.28C166.115 43.7565 166.999 44.4261 167.728 45.295C168.456 46.1639 169.019 47.1885 169.412 48.3688C169.804 49.5492 170.003 50.8478 170.003 52.2618V53.0964C170.003 54.5103 169.807 55.8121 169.412 57.0049C169.016 58.1977 168.44 59.241 167.675 60.1317C166.912 61.0224 165.99 61.7138 164.913 62.1996C163.836 62.6855 162.616 62.9284 161.249 62.9284ZM159.444 57.7181C160.278 57.7181 161.013 57.5032 161.648 57.0765C162.283 56.6467 162.781 56.0519 163.142 55.2858C163.5 54.5228 163.681 53.6539 163.681 52.6791C163.681 51.7043 163.5 50.8198 163.142 50.0911C162.784 49.3623 162.292 48.7955 161.667 48.3875C161.041 47.9826 160.3 47.7802 159.444 47.7802C158.681 47.7802 157.968 47.9546 157.308 48.3003C156.648 48.646 156.11 49.1568 155.693 49.8295C155.276 50.5021 155.067 51.3119 155.067 52.2618V53.4421C155.067 54.3452 155.288 55.1145 155.727 55.7529C156.166 56.3914 156.723 56.8772 157.392 57.2136C158.065 57.5499 158.747 57.7181 159.441 57.7181H159.444Z" fill="#00253A"/>
<path d="M157.822 0.202421L125.914 12.8653L118.546 9.46447C117.045 8.77309 117.341 6.55568 118.972 6.28473L156.356 0.0467038C156.356 0.0467038 156.362 0.0467038 156.368 0.0467038C156.982 -0.0560695 157.473 0.0186747 157.822 0.202421Z" fill="#00D3EF"/>
<path d="M158.161 0.460913L131.978 18.3248L127.987 25.6528C127.648 25.4442 127.38 25.0113 127.312 24.4351L125.911 12.8622L157.822 0.202423C157.956 0.274053 158.071 0.361254 158.161 0.464028V0.460913Z" fill="#0082A5"/>
<path d="M158.245 1.75024L143.119 27.6709C142.543 28.6613 141.164 28.7952 140.408 27.9325L131.978 18.3248L158.161 0.460907C158.47 0.80037 158.513 1.28621 158.245 1.74713V1.75024Z" fill="#00D3EF"/>
<path d="M135.194 21.9903L128.893 25.6684C128.591 25.8459 128.267 25.8241 127.99 25.6528L131.981 18.3248L135.197 21.9903H135.194Z" fill="#006B91"/>
</g>
<defs>
<clipPath id="clip0_21_2">
<rect width="170" height="63" fill="white"/>
</clipPath>
</defs>
</svg>
